<?xml version="1.0" encoding="utf-8"?>
<!-- Generator: Adobe Illustrator 26.0.3, SVG Export Plug-In . SVG Version: 6.00 Build 0)  -->
<svg version="1.1" id="Layer_1" xmlns="http://www.w3.org/2000/svg" xmlns:xlink="http://www.w3.org/1999/xlink" x="0px" y="0px"
	 viewBox="0 0 24 24" style="enable-background:new 0 0 24 24;" xml:space="preserve">
<style type="text/css">
	.st0{fill:#FFFFFF;}
</style>
<path class="st0" d="M12.14,24c-0.09,0-0.19,0-0.28,0c-0.11-0.02-0.23-0.05-0.34-0.06c-0.62-0.07-1.25-0.08-1.85-0.21
	c-3.65-0.79-6.39-2.82-8.2-6.08c-0.89-1.6-1.35-3.33-1.41-5.16c0-0.11-0.04-0.23-0.06-0.34c0-0.09,0-0.19,0-0.28
	c0.02-0.14,0.04-0.27,0.06-0.41c0.1-0.75,0.15-1.52,0.32-2.26c1.23-5.18,5.87-8.98,11.16-9.13c0.11,0,0.21-0.04,0.32-0.06
	c0.09,0,0.19,0,0.28,0c0.13,0.02,0.26,0.05,0.39,0.06c0.48,0.05,0.97,0.06,1.44,0.15c3.42,0.6,6.1,2.36,8.03,5.24
	c1.23,1.84,1.88,3.87,1.95,6.09c0,0.11,0.04,0.21,0.06,0.32c0,0.09,0,0.19,0,0.28c-0.02,0.12-0.05,0.24-0.06,0.36
	c-0.04,0.43-0.05,0.86-0.11,1.28c-0.29,1.9-0.98,3.64-2.12,5.19c-2.29,3.08-5.35,4.77-9.2,4.97C12.38,23.95,12.26,23.98,12.14,24z
	 M10.06,12.98c-0.04,0-0.08,0.01-0.12,0.01c-0.04-0.07-0.07-0.16-0.13-0.22c-0.73-0.74-1.47-1.47-2.2-2.21
	c-0.32-0.32-0.56-0.32-0.88,0c-0.52,0.52-1.04,1.04-1.56,1.56c-0.32,0.32-0.32,0.56,0,0.88c1.45,1.46,2.91,2.92,4.36,4.38
	c0.36,0.36,0.57,0.36,0.93,0c2.78-2.78,5.57-5.56,8.35-8.35c0.35-0.35,0.35-0.56-0.01-0.91c-0.5-0.5-0.99-0.99-1.49-1.49
	c-0.39-0.39-0.6-0.39-1,0.01c-2.04,2.04-4.07,4.08-6.11,6.12C10.15,12.82,10.11,12.91,10.06,12.98z"/>
</svg>
